<?xml version="1.0" encoding="UTF-8" standalone="no"?>
<!-- Created with Inkscape (http://www.inkscape.org/) -->

<svg
   width="223.78mm"
   height="148.28mm"
   version="1.1"
   viewBox="0 0 223.78 148.28"
   id="svg246"
   sodipodi:docname="ion_overview.svg"
   inkscape:version="1.2.1 (9c6d41e410, 2022-07-14)"
   xmlns:inkscape="http://www.inkscape.org/namespaces/inkscape"
   xmlns:sodipodi="http://sodipodi.sourceforge.net/DTD/sodipodi-0.dtd"
   xmlns="http://www.w3.org/2000/svg"
   xmlns:svg="http://www.w3.org/2000/svg">
  <defs
     id="defs250" />
  <sodipodi:namedview
     id="namedview248"
     pagecolor="#ffffff"
     bordercolor="#000000"
     borderopacity="0.25"
     inkscape:showpageshadow="2"
     inkscape:pageopacity="0.0"
     inkscape:pagecheckerboard="0"
     inkscape:deskcolor="#d1d1d1"
     inkscape:document-units="mm"
     showgrid="false"
     inkscape:zoom="1.6844259"
     inkscape:cx="342.84679"
     inkscape:cy="271.90273"
     inkscape:window-width="1920"
     inkscape:window-height="1177"
     inkscape:window-x="1192"
     inkscape:window-y="313"
     inkscape:window-maximized="1"
     inkscape:current-layer="svg246" />
  <g
     transform="translate(-6.9572 -165.14)"
     id="g244">
    <g
       fill="none"
       id="g14">
      <g
         stroke-width="1.3177"
         id="g10">
        <path
           d="m169.86 250.66-13.856-8-17.321 10-13.856-8"
           stroke="#d4d4d4"
           id="path2" />
        <path
           d="m221.82 244.66-13.856 8-17.321-10-13.856 8"
           stroke="#7e7e7e"
           id="path4" />
        <path
           d="m72.868 250.66 13.856-8 17.321 10 13.856-8"
           stroke="#7e7e7e"
           id="path6" />
        <path
           d="m34.763 252.66 17.321-10 13.856 8"
           stroke="#d4d4d4"
           id="path8" />
      </g>
      <path
         d="m20.906 244.66 13.856 8v20l17.321 10v20l17.321 10 17.321-10v-20l-17.321-10-17.321 10"
         stroke="#d4d4d4"
         stroke-width="1.318"
         id="path12" />
    </g>
    <g
       font-family="'Fira Code'"
       font-size="8.5203px"
       font-weight="500"
       stroke-width="2.6462"
       id="g62">
      <g
         aria-label="H2N"
         id="text24"
         style="fill:#1d4f78">
        <path
           d="m 9.9371393,245.83711 v -2.7396 H 7.9709162 v 2.7396 H 6.957219 v -6.02975 h 1.0136972 v 2.4556 h 1.9662231 v -2.4556 h 1.0136967 v 6.02975 z"
           style="fill:#d4d4d4"
           id="path533" />
        <path
           d="m 13.120678,243.54231 q 0.397614,0 0.675944,0.15052 0.27833,0.14769 0.423176,0.40046 0.147685,0.24993 0.147685,0.55666 0,0.25845 -0.09088,0.50554 -0.08804,0.24425 -0.286851,0.51689 -0.195967,0.26981 -0.519738,0.60211 -0.323772,0.32945 -0.792389,0.75546 h 1.780744 l -0.07384,0.51122 h -2.436808 v -0.48282 q 0.528259,-0.50837 0.869071,-0.86339 0.343652,-0.35501 0.536779,-0.61346 0.195967,-0.25845 0.27549,-0.46578 0.07952,-0.21016 0.07952,-0.42601 0,-0.29537 -0.167566,-0.46578 -0.167566,-0.1704 -0.465777,-0.1704 -0.264129,0 -0.443056,0.0966 -0.176086,0.0966 -0.349332,0.31241 l -0.414655,-0.31525 q 0.230048,-0.29253 0.528259,-0.44874 0.298211,-0.1562 0.724226,-0.1562 z"
           style="font-size:5.5382px;baseline-shift:sub;fill:#d4d4d4"
           id="path535" />
        <path
           d="m 18.282672,245.83711 -1.918159,-5.12966 q 0.01748,0.17915 0.05243,0.55929 0.03496,0.37576 0.06117,0.86076 0.03058,0.48064 0.03058,0.97001 v 2.7396 h -0.900093 v -6.02975 h 1.315185 l 1.922529,5.13403 q -0.02185,-0.18352 -0.0568,-0.53744 -0.03059,-0.35392 -0.06117,-0.83018 -0.02622,-0.47626 -0.02622,-1.01807 v -2.74834 h 0.900094 v 6.02975 z"
           style="fill:#569cd6"
           id="path537" />
      </g>
      <g
         aria-label="O"
         id="text28"
         style="fill:#f48771">
        <path
           d="m 54.376938,222.65195 q 0,0.93068 -0.257794,1.63852 -0.257794,0.70347 -0.769012,1.10108 -0.511218,0.39325 -1.267121,0.39325 -0.755904,0 -1.267122,-0.38451 -0.511218,-0.3845 -0.769011,-1.08797 -0.257794,-0.70348 -0.257794,-1.65163 0,-0.93068 0.257794,-1.63852 0.257793,-0.70784 0.769011,-1.10546 0.511218,-0.40198 1.267122,-0.40198 0.755903,0 1.267121,0.38888 0.511218,0.38887 0.769012,1.09671 0.257794,0.70347 0.257794,1.65163 z m -1.048653,0 q 0,-1.171 -0.288379,-1.75649 -0.288379,-0.58987 -0.956895,-0.58987 -0.668516,0 -0.956895,0.59424 -0.28838,0.58986 -0.28838,1.76086 0,1.16662 0.297118,1.75212 0.297118,0.58113 0.948157,0.58113 0.668516,0 0.956895,-0.5855 0.288379,-0.58987 0.288379,-1.75649 z"
           style="font-size:8.5203px"
           id="path540" />
      </g>
      <g
         aria-label="N"
         id="text32"
         style="fill:#569cd6">
        <path
           d="m 69.995304,255.44792 -1.91816,-5.12966 q 0.01748,0.17915 0.05243,0.55929 0.03495,0.37576 0.06117,0.86076 0.03059,0.48064 0.03059,0.97001 v 2.7396 h -0.900093 v -6.02975 h 1.315185 l 1.922529,5.13403 q -0.02185,-0.18352 -0.0568,-0.53744 -0.03059,-0.35392 -0.06117,-0.83018 -0.02622,-0.47626 -0.02622,-1.01807 v -2.74834 h 0.900093 v 6.02975 z"
           style="font-size:8.5203px"
           id="path543" />
      </g>
      <g
         aria-label="H"
         id="text36"
         style="fill:#1e1e1e">
        <path
           d="m 70.301161,262.52264 v -2.7396 h -1.966223 v 2.7396 h -1.013697 v -6.02975 h 1.013697 v 2.4556 h 1.966223 v -2.4556 h 1.013697 v 6.02975 z"
           style="font-size:8.5203px;fill:#d4d4d4"
           id="path546" />
      </g>
      <g
         aria-label="O"
         id="text40"
         style="fill:#f48771">
        <path
           d="m 106.33845,272.28996 q 0,0.93068 -0.25779,1.63852 -0.25779,0.70347 -0.76901,1.10109 -0.51122,0.39324 -1.26712,0.39324 -0.75591,0 -1.26712,-0.3845 -0.51122,-0.38451 -0.76902,-1.08798 -0.25779,-0.70347 -0.25779,-1.65163 0,-0.93068 0.25779,-1.63852 0.2578,-0.70784 0.76902,-1.10545 0.51121,-0.40198 1.26712,-0.40198 0.7559,0 1.26712,0.38887 0.51122,0.38888 0.76901,1.09672 0.25779,0.70347 0.25779,1.65162 z m -1.04865,0 q 0,-1.17099 -0.28838,-1.75649 -0.28838,-0.58986 -0.95689,-0.58986 -0.66852,0 -0.9569,0.59423 -0.28838,0.58987 -0.28838,1.76086 0,1.16663 0.29712,1.75213 0.29712,0.58112 0.94816,0.58112 0.66851,0 0.95689,-0.58549 0.28838,-0.58987 0.28838,-1.7565 z"
           style="font-size:8.5203px"
           id="path549" />
      </g>
      <g
         aria-label="N"
         id="text44"
         style="fill:#569cd6">
        <path
           d="m 121.83529,245.83711 -1.91816,-5.12966 q 0.0175,0.17915 0.0524,0.55929 0.0349,0.37576 0.0612,0.86076 0.0306,0.48064 0.0306,0.97001 v 2.7396 h -0.90009 v -6.02975 h 1.31518 l 1.92253,5.13403 q -0.0218,-0.18352 -0.0568,-0.53744 -0.0306,-0.35392 -0.0612,-0.83018 -0.0262,-0.47626 -0.0262,-1.01807 v -2.74834 h 0.9001 v 6.02975 z"
           style="font-size:8.5203px"
           id="path552" />
      </g>
      <g
         aria-label="H"
         id="text48"
         style="fill:#1e1e1e">
        <path
           d="m 122.14115,238.70258 v -2.73961 h -1.96622 v 2.73961 h -1.0137 v -6.02976 h 1.0137 v 2.4556 h 1.96622 v -2.4556 h 1.0137 v 6.02976 z"
           style="font-size:8.5203px;fill:#d4d4d4"
           id="path555" />
      </g>
      <g
         aria-label="O"
         id="text52"
         style="fill:#f48771">
        <path
           d="m 158.29999,222.53552 q 0,0.93068 -0.2578,1.63852 -0.25779,0.70347 -0.76901,1.10109 -0.51122,0.39324 -1.26712,0.39324 -0.7559,0 -1.26712,-0.3845 -0.51122,-0.38451 -0.76901,-1.08798 -0.2578,-0.70347 -0.2578,-1.65163 0,-0.93068 0.2578,-1.63852 0.25779,-0.70784 0.76901,-1.10545 0.51122,-0.40198 1.26712,-0.40198 0.7559,0 1.26712,0.38887 0.51122,0.38888 0.76901,1.09672 0.2578,0.70347 0.2578,1.65162 z m -1.04865,0 q 0,-1.17099 -0.28838,-1.75649 -0.28838,-0.58987 -0.9569,-0.58987 -0.66852,0 -0.95689,0.59424 -0.28838,0.58987 -0.28838,1.76086 0,1.16663 0.29711,1.75213 0.29712,0.58112 0.94816,0.58112 0.66852,0 0.9569,-0.58549 0.28838,-0.58987 0.28838,-1.7565 z"
           style="font-size:8.5203px"
           id="path558" />
      </g>
      <g
         aria-label="N"
         id="text56"
         style="fill:#569cd6">
        <path
           d="m 173.90466,255.44792 -1.91816,-5.12966 q 0.0175,0.17915 0.0524,0.55929 0.035,0.37576 0.0612,0.86076 0.0306,0.48064 0.0306,0.97001 v 2.7396 h -0.90009 v -6.02975 h 1.31518 l 1.92253,5.13403 q -0.0219,-0.18352 -0.0568,-0.53744 -0.0306,-0.35392 -0.0612,-0.83018 -0.0262,-0.47626 -0.0262,-1.01807 v -2.74834 h 0.90009 v 6.02975 z"
           style="font-size:8.5203px"
           id="path561" />
      </g>
      <g
         aria-label="H"
         id="text60"
         style="fill:#1e1e1e">
        <path
           d="m 174.21052,262.57227 v -2.73961 h -1.96623 v 2.73961 h -1.01369 v -6.02976 h 1.01369 v 2.4556 h 1.96623 v -2.4556 h 1.01369 v 6.02976 z"
           style="font-size:8.5203px;fill:#d4d4d4"
           id="path564" />
      </g>
    </g>
    <g
       fill="#f48771"
       font-family="'Fira Code'"
       font-size="8.5203px"
       font-weight="500"
       stroke-width="2.6462"
       id="g84">
      <g
         aria-label="O"
         id="text66">
        <path
           d="m 210.2615,272.28996 q 0,0.93068 -0.25779,1.63852 -0.25779,0.70347 -0.76901,1.10109 -0.51122,0.39324 -1.26712,0.39324 -0.75591,0 -1.26712,-0.3845 -0.51122,-0.38451 -0.76902,-1.08798 -0.25779,-0.70347 -0.25779,-1.65163 0,-0.93068 0.25779,-1.63852 0.2578,-0.70784 0.76902,-1.10545 0.51121,-0.40198 1.26712,-0.40198 0.7559,0 1.26712,0.38887 0.51122,0.38888 0.76901,1.09672 0.25779,0.70347 0.25779,1.65162 z m -1.04865,0 q 0,-1.17099 -0.28838,-1.75649 -0.28838,-0.58986 -0.95689,-0.58986 -0.66852,0 -0.9569,0.59423 -0.28838,0.58987 -0.28838,1.76086 0,1.16663 0.29712,1.75213 0.29712,0.58112 0.94816,0.58112 0.66851,0 0.95689,-0.58549 0.28838,-0.58987 0.28838,-1.7565 z"
           style="font-size:8.5203px"
           id="path567" />
      </g>
      <g
         aria-label="O-"
         id="text72">
        <path
           d="m 227.53715,242.82224 q 0,0.93068 -0.25779,1.63852 -0.25779,0.70347 -0.76901,1.10108 -0.51122,0.39325 -1.26712,0.39325 -0.75591,0 -1.26712,-0.38451 -0.51122,-0.38451 -0.76902,-1.08798 -0.25779,-0.70347 -0.25779,-1.65162 0,-0.93068 0.25779,-1.63852 0.2578,-0.70784 0.76902,-1.10546 0.51121,-0.40198 1.26712,-0.40198 0.7559,0 1.26712,0.38887 0.51122,0.38888 0.76901,1.09672 0.25779,0.70347 0.25779,1.65163 z m -1.04865,0 q 0,-1.171 -0.28838,-1.7565 -0.28838,-0.58986 -0.95689,-0.58986 -0.66852,0 -0.9569,0.59423 -0.28838,0.58987 -0.28838,1.76087 0,1.16662 0.29712,1.75212 0.29712,0.58113 0.94816,0.58113 0.66851,0 0.95689,-0.5855 0.28838,-0.58987 0.28838,-1.75649 z"
           style="font-size:8.5203px"
           id="path570" />
        <path
           d="m 228.39596,240.91238 v -0.52258 h 2.34593 v 0.52258 z"
           style="font-size:5.5382px;baseline-shift:super"
           id="path572" />
      </g>
      <g
         aria-label="O-"
         id="text78">
        <path
           d="m 227.53715,182.82686 q 0,0.93068 -0.25779,1.63852 -0.25779,0.70347 -0.76901,1.10108 -0.51122,0.39325 -1.26712,0.39325 -0.75591,0 -1.26712,-0.38451 -0.51122,-0.3845 -0.76902,-1.08797 -0.25779,-0.70347 -0.25779,-1.65163 0,-0.93068 0.25779,-1.63852 0.2578,-0.70784 0.76902,-1.10545 0.51121,-0.40199 1.26712,-0.40199 0.7559,0 1.26712,0.38888 0.51122,0.38887 0.76901,1.09671 0.25779,0.70347 0.25779,1.65163 z m -1.04865,0 q 0,-1.17099 -0.28838,-1.75649 -0.28838,-0.58987 -0.95689,-0.58987 -0.66852,0 -0.9569,0.59424 -0.28838,0.58986 -0.28838,1.76086 0,1.16662 0.29712,1.75212 0.29712,0.58113 0.94816,0.58113 0.66851,0 0.95689,-0.5855 0.28838,-0.58986 0.28838,-1.75649 z"
           style="font-size:8.5203px"
           id="path575" />
        <path
           d="m 228.39596,180.917 v -0.52258 h 2.34593 v 0.52258 z"
           style="font-size:5.5382px;baseline-shift:super"
           id="path577" />
      </g>
      <g
         aria-label="O"
         id="text82">
        <path
           d="m 192.8744,182.82686 q 0,0.93068 -0.25779,1.63852 -0.25779,0.70347 -0.76901,1.10108 -0.51122,0.39325 -1.26712,0.39325 -0.75591,0 -1.26712,-0.38451 -0.51122,-0.3845 -0.76902,-1.08797 -0.25779,-0.70347 -0.25779,-1.65163 0,-0.93068 0.25779,-1.63852 0.2578,-0.70784 0.76902,-1.10545 0.51121,-0.40199 1.26712,-0.40199 0.7559,0 1.26712,0.38888 0.51122,0.38887 0.76901,1.09671 0.25779,0.70347 0.25779,1.65163 z m -1.04865,0 q 0,-1.17099 -0.28838,-1.75649 -0.28838,-0.58987 -0.95689,-0.58987 -0.66852,0 -0.9569,0.59424 -0.28838,0.58986 -0.28838,1.76086 0,1.16662 0.29712,1.75212 0.29712,0.58113 0.94816,0.58113 0.66851,0 0.95689,-0.5855 0.28838,-0.58986 0.28838,-1.75649 z"
           style="font-size:8.5203px"
           id="path580" />
      </g>
    </g>
    <g
       aria-label="wa3"
       id="text90"
       style="font-weight:500;font-size:8.5203px;font-family:'Fira Code';fill:#dcd08f;stroke-width:2.6462">
      <path
         d="m 92.842955,198.33087 h -1.223428 l -0.519957,-3.27704 -0.559281,3.27704 h -1.197211 l -0.78212,-4.61407 h 0.943787 l 0.480632,4.00673 0.6423,-3.42123 h 0.978742 l 0.598606,3.42123 0.480632,-4.00673 h 0.908832 z"
         id="path583" />
      <path
         d="m 98.003202,197.1992 q 0,0.27527 0.08302,0.39761 0.08302,0.12235 0.266533,0.18352 l -0.21847,0.66415 q -0.340812,-0.0393 -0.589867,-0.18789 -0.244685,-0.14856 -0.367028,-0.45004 -0.253424,0.32333 -0.642299,0.485 -0.388876,0.15729 -0.830183,0.15729 -0.703471,0 -1.109824,-0.39324 -0.406353,-0.39761 -0.406353,-1.03991 0,-0.72969 0.56802,-1.12294 0.56802,-0.39324 1.625411,-0.39324 h 0.659777 v -0.30149 q 0,-0.45004 -0.270902,-0.6423 -0.270902,-0.19662 -0.755903,-0.19662 -0.227208,0 -0.550543,0.0612 -0.323334,0.0568 -0.677254,0.17915 l -0.240316,-0.69037 q 0.432569,-0.16166 0.84766,-0.23594 0.415092,-0.0787 0.769012,-0.0787 0.926309,0 1.380725,0.41072 0.458786,0.41072 0.458786,1.13604 z m -2.001178,0.5287 q 0.297118,0 0.581128,-0.1573 0.28401,-0.1573 0.458785,-0.44131 v -1.01807 h -0.541804 q -0.690362,0 -0.98748,0.23158 -0.297119,0.22721 -0.297119,0.62919 0,0.75591 0.78649,0.75591 z"
         id="path585" />
      <path
         d="m 100.47628,196.03607 q 0.38909,0 0.67026,0.13632 0.28117,0.13633 0.4317,0.3607 0.15052,0.22436 0.15052,0.49417 0,0.36354 -0.22436,0.60494 -0.22153,0.24141 -0.55382,0.3181 0.24424,0.0256 0.44873,0.13632 0.20733,0.11077 0.32945,0.31525 0.12497,0.20449 0.12497,0.51406 0,0.33513 -0.17609,0.60778 -0.17608,0.26981 -0.49418,0.42886 -0.31809,0.15904 -0.74978,0.15904 -0.36922,0 -0.704348,-0.13632 -0.332292,-0.13633 -0.565181,-0.41182 l 0.389094,-0.34081 q 0.167566,0.19597 0.389094,0.28969 0.224371,0.0937 0.462941,0.0937 0.36353,0 0.57654,-0.18745 0.213,-0.19029 0.213,-0.52542 0,-0.38057 -0.21016,-0.5311 -0.21017,-0.15336 -0.5453,-0.15336 h -0.33798 l 0.0738,-0.46862 h 0.23857 q 0.27549,0 0.47997,-0.15053 0.20733,-0.15336 0.20733,-0.46861 0,-0.28401 -0.19597,-0.43738 -0.19312,-0.15621 -0.47997,-0.15621 -0.24709,0 -0.437379,0.0909 -0.190287,0.0909 -0.374894,0.26129 l -0.337972,-0.3607 q 0.258449,-0.24424 0.5595,-0.36353 0.301055,-0.11928 0.641865,-0.11928 z"
         style="font-size:5.5382px;baseline-shift:sub"
         id="path587" />
    </g>
    <g
       aria-label="Δ29"
       id="text94"
       style="font-weight:500;font-size:8.5203px;font-family:'Fira Code';fill:#dcd08f;stroke-width:2.6462">
      <path
         d="m 105.1787,224.8057 1.92253,6.02975 h -5.09907 l 1.91816,-6.02975 z m -0.64667,0.7996 -1.26712,4.39997 h 2.52987 z"
         id="path590" />
      <path
         d="m 109.54809,224.68336 q 0.61171,0 1.03991,0.23157 0.4282,0.22721 0.65104,0.61609 0.22721,0.3845 0.22721,0.8564 0,0.39761 -0.13982,0.77775 -0.13545,0.37576 -0.44131,0.79522 -0.30149,0.4151 -0.7996,0.92631 -0.49811,0.50685 -1.21905,1.16226 h 2.7396 l -0.1136,0.78649 h -3.74894 v -0.7428 q 0.81271,-0.78212 1.33704,-1.32829 0.52869,-0.54617 0.82581,-0.94379 0.30149,-0.39761 0.42383,-0.71658 0.12234,-0.32333 0.12234,-0.6554 0,-0.45442 -0.25779,-0.71658 -0.2578,-0.26217 -0.71658,-0.26217 -0.40635,0 -0.68162,0.14856 -0.27091,0.14856 -0.53744,0.48064 l -0.63793,-0.48501 q 0.35392,-0.45004 0.81271,-0.69036 0.45878,-0.24031 1.11419,-0.24031 z"
         id="path592" />
      <path
         d="m 114.96613,224.69209 q 1.03117,0 1.54676,0.66852 0.51559,0.66415 0.51559,1.77397 0,0.89572 -0.20099,1.54239 -0.19662,0.6423 -0.61172,1.09235 -0.41072,0.45005 -1.05302,0.7559 -0.63793,0.30586 -1.52491,0.52433 l -0.2141,-0.71658 q 1.18847,-0.31897 1.81766,-0.83892 0.62919,-0.52433 0.74717,-1.45938 -0.26654,0.28838 -0.59424,0.46316 -0.3277,0.17477 -0.7559,0.17477 -0.49374,0 -0.88262,-0.23157 -0.38451,-0.23595 -0.61171,-0.66852 -0.22284,-0.43257 -0.22284,-1.0268 0,-0.65104 0.2709,-1.10983 0.2709,-0.45878 0.73406,-0.6991 0.46752,-0.24469 1.03991,-0.24469 z m -1.04865,2.05362 q 0,0.63793 0.26216,0.91757 0.26653,0.27964 0.70347,0.27964 0.34518,0 0.61609,-0.16167 0.2709,-0.16167 0.51558,-0.45005 -0.004,-1.00933 -0.24468,-1.45063 -0.23595,-0.44568 -0.80834,-0.44568 -0.50685,0 -0.77775,0.3277 -0.26653,0.32771 -0.26653,0.98312 z"
         id="path594" />
    </g>
    <g
       fill="#569cd6"
       font-family="'Fira Code'"
       font-size="8.5203px"
       font-weight="500"
       stroke-width="1.3177"
       id="g112">
      <g
         aria-label="Phenylanaline"
         id="text98">
        <path
           d="m 10.985409,179.84918 q 1.090598,0 1.687019,0.4601 0.596421,0.45157 0.596421,1.35472 0,0.9628 -0.621982,1.43141 -0.621981,0.46862 -1.652938,0.46862 h -0.741266 v 2.15564 H 9.4432346 v -5.87049 z m -0.02556,3.07583 q 0.707185,0 1.073558,-0.27265 0.374893,-0.27265 0.374893,-0.97984 0,-0.6305 -0.374893,-0.91167 -0.366373,-0.28117 -1.056517,-0.28117 h -0.724226 v 2.44533 z"
           style="font-weight:normal;font-family:'Fira Sans'"
           id="path597" />
        <path
           d="m 16.293547,181.12722 q 0.613461,0 0.954273,0.36638 0.349332,0.36637 0.349332,1.00539 v 3.22068 h -0.783867 v -3.10991 q 0,-0.47714 -0.187447,-0.67311 -0.178926,-0.19596 -0.528258,-0.19596 -0.349333,0 -0.621982,0.20448 -0.27265,0.20449 -0.511218,0.57938 v 3.19512 h -0.783868 v -6.28799 l 0.783868,-0.0852 v 2.50497 q 0.528258,-0.72423 1.329167,-0.72423 z"
           style="font-weight:normal;font-family:'Fira Sans'"
           id="path599" />
        <path
           d="m 22.564491,183.3425 q 0,0.19597 -0.01704,0.40046 h -2.86282 q 0.05112,0.74126 0.374893,1.09059 0.323771,0.34934 0.834989,0.34934 0.323772,0 0.596421,-0.0937 0.27265,-0.0937 0.57086,-0.29821 l 0.340812,0.46862 q -0.715705,0.56234 -1.567735,0.56234 -0.937233,0 -1.465491,-0.61346 -0.519739,-0.61346 -0.519739,-1.68702 0,-0.69867 0.221528,-1.23545 0.230048,-0.54529 0.647543,-0.85203 0.426015,-0.30673 0.996875,-0.30673 0.894631,0 1.371768,0.5879 0.477137,0.58791 0.477137,1.62738 z m -0.775347,-0.23005 q 0,-0.66458 -0.26413,-1.01391 -0.264129,-0.34933 -0.792387,-0.34933 -0.962794,0 -1.047997,1.41437 h 2.104514 z"
           style="font-weight:normal;font-family:'Fira Sans'"
           id="path601" />
        <path
           d="m 25.93001,181.12722 q 0.613462,0 0.954274,0.36638 0.349332,0.36637 0.349332,1.00539 v 3.22068 h -0.783867 v -3.10991 q 0,-0.47714 -0.178927,-0.67311 -0.178926,-0.19596 -0.528258,-0.19596 -0.357853,0 -0.630503,0.20448 -0.272649,0.20449 -0.511218,0.5879 v 3.1866 h -0.783867 v -4.4902 h 0.673104 l 0.06816,0.66458 q 0.238568,-0.35785 0.587901,-0.56234 0.357852,-0.20449 0.783867,-0.20449 z"
           style="font-weight:normal;font-family:'Fira Sans'"
           id="path603" />
        <path
           d="m 30.548016,185.74523 q -0.264129,0.78386 -0.741266,1.23544 -0.468616,0.4601 -1.346207,0.55382 l -0.0852,-0.61346 q 0.443055,-0.0767 0.707185,-0.22153 0.264129,-0.14485 0.417494,-0.37489 0.161886,-0.22153 0.298211,-0.60494 h -0.264129 l -1.508094,-4.4902 h 0.83499 l 1.201362,3.91934 1.175802,-3.91934 h 0.809428 z"
           style="font-weight:normal;font-family:'Fira Sans'"
           id="path605" />
        <path
           d="m 33.836856,185.82191 q -0.434535,0 -0.690144,-0.25561 -0.247089,-0.26413 -0.247089,-0.73275 v -5.41039 l 0.783868,-0.0937 v 5.48707 q 0,0.18745 0.05964,0.27265 0.06816,0.0852 0.221528,0.0852 0.161885,0 0.28969,-0.0511 l 0.204487,0.5453 q -0.28117,0.15337 -0.621982,0.15337 z"
           style="font-weight:normal;font-family:'Fira Sans'"
           id="path607" />
        <path
           d="m 38.420779,184.67167 q 0,0.27265 0.09372,0.40897 0.09372,0.12781 0.28117,0.19597 l -0.178926,0.5453 q -0.349332,-0.0426 -0.56234,-0.19597 -0.213007,-0.15336 -0.315251,-0.47713 -0.451576,0.6731 -1.337687,0.6731 -0.664583,0 -1.047997,-0.37489 -0.383413,-0.3749 -0.383413,-0.97984 0,-0.7157 0.511218,-1.09912 0.519738,-0.38341 1.465491,-0.38341 h 0.690145 v -0.33229 q 0,-0.47714 -0.230049,-0.68163 -0.230048,-0.20448 -0.707184,-0.20448 -0.494178,0 -1.209883,0.23856 l -0.195967,-0.57086 q 0.834989,-0.30673 1.550695,-0.30673 0.792388,0 1.184321,0.39194 0.391934,0.38341 0.391934,1.09912 z m -1.840385,0.56234 q 0.673104,0 1.056518,-0.69867 v -1.03095 h -0.587901 q -1.243964,0 -1.243964,0.92019 0,0.40045 0.195967,0.60494 0.195967,0.20449 0.57938,0.20449 z"
           style="font-weight:normal;font-family:'Fira Sans'"
           id="path609" />
        <path
           d="m 42.144155,181.12722 q 0.613462,0 0.954274,0.36638 0.349332,0.36637 0.349332,1.00539 v 3.22068 h -0.783868 v -3.10991 q 0,-0.47714 -0.178926,-0.67311 -0.178926,-0.19596 -0.528259,-0.19596 -0.357852,0 -0.630502,0.20448 -0.272649,0.20449 -0.511218,0.5879 v 3.1866 h -0.783867 v -4.4902 h 0.673103 l 0.06816,0.66458 q 0.238568,-0.35785 0.5879,-0.56234 0.357853,-0.20449 0.783868,-0.20449 z"
           style="font-weight:normal;font-family:'Fira Sans'"
           id="path611" />
        <path
           d="m 48.048726,184.67167 q 0,0.27265 0.09372,0.40897 0.09372,0.12781 0.28117,0.19597 l -0.178926,0.5453 q -0.349332,-0.0426 -0.56234,-0.19597 -0.213007,-0.15336 -0.315251,-0.47713 -0.451576,0.6731 -1.337687,0.6731 -0.664583,0 -1.047997,-0.37489 -0.383413,-0.3749 -0.383413,-0.97984 0,-0.7157 0.511218,-1.09912 0.519738,-0.38341 1.465491,-0.38341 h 0.690144 v -0.33229 q 0,-0.47714 -0.230048,-0.68163 -0.230048,-0.20448 -0.707185,-0.20448 -0.494177,0 -1.209882,0.23856 l -0.195967,-0.57086 q 0.834989,-0.30673 1.550695,-0.30673 0.792387,0 1.184321,0.39194 0.391934,0.38341 0.391934,1.09912 z m -1.840385,0.56234 q 0.673104,0 1.056517,-0.69867 v -1.03095 h -0.5879 q -1.243964,0 -1.243964,0.92019 0,0.40045 0.195967,0.60494 0.195967,0.20449 0.57938,0.20449 z"
           style="font-weight:normal;font-family:'Fira Sans'"
           id="path613" />
        <path
           d="m 50.468494,185.82191 q -0.434535,0 -0.690144,-0.25561 -0.247089,-0.26413 -0.247089,-0.73275 v -5.41039 l 0.783867,-0.0937 v 5.48707 q 0,0.18745 0.05964,0.27265 0.06816,0.0852 0.221527,0.0852 0.161886,0 0.289691,-0.0511 l 0.204487,0.5453 q -0.28117,0.15337 -0.621982,0.15337 z"
           style="font-weight:normal;font-family:'Fira Sans'"
           id="path615" />
        <path
           d="m 52.854175,181.22947 v 4.4902 h -0.783868 v -4.4902 z m -0.400454,-2.15564 q 0.247088,0 0.400454,0.15337 0.153365,0.15336 0.153365,0.38341 0,0.23005 -0.153365,0.38341 -0.153366,0.14485 -0.400454,0.14485 -0.238569,0 -0.391934,-0.14485 -0.153366,-0.15336 -0.153366,-0.38341 0,-0.23005 0.153366,-0.38341 0.153365,-0.15337 0.391934,-0.15337 z"
           style="font-weight:normal;font-family:'Fira Sans'"
           id="path617" />
        <path
           d="m 56.586063,181.12722 q 0.613461,0 0.954273,0.36638 0.349333,0.36637 0.349333,1.00539 v 3.22068 h -0.783868 v -3.10991 q 0,-0.47714 -0.178926,-0.67311 -0.178926,-0.19596 -0.528259,-0.19596 -0.357852,0 -0.630502,0.20448 -0.27265,0.20449 -0.511218,0.5879 v 3.1866 h -0.783868 v -4.4902 h 0.673104 l 0.06816,0.66458 q 0.238568,-0.35785 0.5879,-0.56234 0.357853,-0.20449 0.783868,-0.20449 z"
           style="font-weight:normal;font-family:'Fira Sans'"
           id="path619" />
        <path
           d="m 62.857005,183.3425 q 0,0.19597 -0.01704,0.40046 h -2.862821 q 0.05112,0.74126 0.374894,1.09059 0.323771,0.34934 0.834989,0.34934 0.323771,0 0.596421,-0.0937 0.27265,-0.0937 0.57086,-0.29821 l 0.340812,0.46862 q -0.715705,0.56234 -1.567735,0.56234 -0.937233,0 -1.465492,-0.61346 -0.519738,-0.61346 -0.519738,-1.68702 0,-0.69867 0.221528,-1.23545 0.230048,-0.54529 0.647543,-0.85203 0.426015,-0.30673 0.996875,-0.30673 0.894631,0 1.371768,0.5879 0.477137,0.58791 0.477137,1.62738 z m -0.775347,-0.23005 q 0,-0.66458 -0.26413,-1.01391 -0.264129,-0.34933 -0.792388,-0.34933 -0.962794,0 -1.047997,1.41437 h 2.104515 z"
           style="font-weight:normal;font-family:'Fira Sans'"
           id="path621" />
      </g>
      <g
         aria-label="Isoleucine"
         id="text102">
        <path
           d="m 69.70548,165.91687 v 5.87048 h -0.809428 v -5.87048 z"
           style="font-weight:normal;font-family:'Fira Sans'"
           id="path624" />
        <path
           d="m 72.585342,167.19491 q 0.460096,0 0.826469,0.12781 0.366373,0.1278 0.698665,0.38341 l -0.332292,0.49418 q -0.306731,-0.19597 -0.587901,-0.28969 -0.272649,-0.0937 -0.57938,-0.0937 -0.383414,0 -0.604941,0.16189 -0.221528,0.15336 -0.221528,0.42601 0,0.27265 0.204487,0.42602 0.213007,0.15336 0.758307,0.29821 0.749786,0.18745 1.116159,0.51122 0.374893,0.32377 0.374893,0.88611 0,0.66458 -0.519738,1.01391 -0.511218,0.34934 -1.252484,0.34934 -1.022436,0 -1.69554,-0.5879 l 0.417495,-0.47714 q 0.57086,0.43453 1.261004,0.43453 0.443056,0 0.698665,-0.17892 0.264129,-0.18745 0.264129,-0.5027 0,-0.23005 -0.09372,-0.36637 -0.09372,-0.14485 -0.323772,-0.24709 -0.230048,-0.11076 -0.673103,-0.23005 -0.715705,-0.18745 -1.039477,-0.5027 -0.315251,-0.31525 -0.315251,-0.8009 0,-0.34934 0.204487,-0.63051 0.213008,-0.28969 0.579381,-0.44305 0.374893,-0.16189 0.834989,-0.16189 z"
           style="font-weight:normal;font-family:'Fira Sans'"
           id="path626" />
        <path
           d="m 77.032947,167.19491 q 0.945753,0 1.465491,0.6305 0.528259,0.63051 0.528259,1.71258 0,0.69867 -0.238568,1.23545 -0.238569,0.52826 -0.690145,0.82647 -0.451576,0.28969 -1.073557,0.28969 -0.945754,0 -1.474012,-0.63051 -0.528259,-0.6305 -0.528259,-1.71258 0,-0.69866 0.238569,-1.22692 0.238568,-0.53678 0.690144,-0.82647 0.451576,-0.29821 1.082078,-0.29821 z m 0,0.6305 q -1.167281,0 -1.167281,1.7211 0,1.71258 1.158761,1.71258 1.15876,0 1.15876,-1.7211 0,-1.71258 -1.15024,-1.71258 z"
           style="font-weight:normal;font-family:'Fira Sans'"
           id="path628" />
        <path
           d="m 81.216411,171.8896 q -0.434535,0 -0.690144,-0.25561 -0.247089,-0.26413 -0.247089,-0.73275 v -5.41039 l 0.783868,-0.0937 v 5.48707 q 0,0.18745 0.05964,0.27265 0.06816,0.0852 0.221528,0.0852 0.161885,0 0.28969,-0.0511 l 0.204487,0.5453 q -0.28117,0.15337 -0.621982,0.15337 z"
           style="font-weight:normal;font-family:'Fira Sans'"
           id="path630" />
        <path
           d="m 86.166706,169.41019 q 0,0.19597 -0.01704,0.40045 h -2.862821 q 0.05112,0.74127 0.374894,1.0906 0.323771,0.34933 0.834989,0.34933 0.323771,0 0.596421,-0.0937 0.27265,-0.0937 0.57086,-0.29821 l 0.340812,0.46862 q -0.715705,0.56234 -1.567735,0.56234 -0.937233,0 -1.465492,-0.61346 -0.519738,-0.61347 -0.519738,-1.68702 0,-0.69867 0.221528,-1.23545 0.230048,-0.5453 0.647543,-0.85203 0.426015,-0.30673 0.996875,-0.30673 0.894631,0 1.371768,0.5879 0.477137,0.5879 0.477137,1.62738 z m -0.775347,-0.23005 q 0,-0.66458 -0.26413,-1.01391 -0.264129,-0.34934 -0.792388,-0.34934 -0.962794,0 -1.047997,1.41437 h 2.104515 z"
           style="font-weight:normal;font-family:'Fira Sans'"
           id="path632" />
        <path
           d="m 90.759148,171.78735 h -0.673103 l -0.05964,-0.69866 q -0.255609,0.41749 -0.5879,0.61346 -0.332292,0.18745 -0.809429,0.18745 -0.5879,0 -0.920192,-0.35786 -0.332292,-0.35785 -0.332292,-1.01391 v -3.22067 h 0.783868 v 3.13547 q 0,0.46009 0.161885,0.65606 0.161886,0.18745 0.528259,0.18745 0.656063,0 1.12468,-0.77535 v -3.20363 h 0.783867 z"
           style="font-weight:normal;font-family:'Fira Sans'"
           id="path634" />
        <path
           d="m 94.013909,167.19491 q 0.400454,0 0.732745,0.11929 0.332292,0.11076 0.639023,0.36637 l -0.374893,0.49418 q -0.238569,-0.17041 -0.468617,-0.24709 -0.221528,-0.0852 -0.494177,-0.0852 -0.545299,0 -0.85203,0.43454 -0.298211,0.43454 -0.298211,1.28657 0,0.85203 0.298211,1.261 0.29821,0.40045 0.85203,0.40045 0.264129,0 0.485657,-0.0767 0.221528,-0.0852 0.494177,-0.26413 l 0.357853,0.51122 q -0.613462,0.49418 -1.371768,0.49418 -0.911672,0 -1.439931,-0.61346 -0.519738,-0.61347 -0.519738,-1.69554 0,-0.71571 0.238568,-1.25249 0.238568,-0.53678 0.673104,-0.83499 0.443055,-0.29821 1.047997,-0.29821 z"
           style="font-weight:normal;font-family:'Fira Sans'"
           id="path636" />
        <path
           d="m 97.234589,167.29716 v 4.49019 h -0.783868 v -4.49019 z m -0.400454,-2.15564 q 0.247088,0 0.400454,0.15336 0.153365,0.15337 0.153365,0.38342 0,0.23005 -0.153365,0.38341 -0.153366,0.14485 -0.400454,0.14485 -0.238569,0 -0.391934,-0.14485 -0.153366,-0.15336 -0.153366,-0.38341 0,-0.23005 0.153366,-0.38342 0.153365,-0.15336 0.391934,-0.15336 z"
           style="font-weight:normal;font-family:'Fira Sans'"
           id="path638" />
        <path
           d="m 100.96647,167.19491 q 0.61347,0 0.95428,0.36637 0.34933,0.36638 0.34933,1.0054 v 3.22067 h -0.78387 v -3.10991 q 0,-0.47713 -0.17892,-0.6731 -0.17893,-0.19597 -0.52826,-0.19597 -0.35785,0 -0.6305,0.20449 -0.272653,0.20449 -0.511222,0.5879 v 3.18659 h -0.783867 v -4.49019 h 0.673103 l 0.06816,0.66458 q 0.238568,-0.35785 0.587903,-0.56234 0.35785,-0.20449 0.78386,-0.20449 z"
           style="font-weight:normal;font-family:'Fira Sans'"
           id="path640" />
        <path
           d="m 107.23742,169.41019 q 0,0.19597 -0.017,0.40045 h -2.86282 q 0.0511,0.74127 0.37489,1.0906 0.32377,0.34933 0.83499,0.34933 0.32377,0 0.59642,-0.0937 0.27265,-0.0937 0.57086,-0.29821 l 0.34081,0.46862 q -0.7157,0.56234 -1.56773,0.56234 -0.93724,0 -1.46549,-0.61346 -0.51974,-0.61347 -0.51974,-1.68702 0,-0.69867 0.22153,-1.23545 0.23004,-0.5453 0.64754,-0.85203 0.42601,-0.30673 0.99687,-0.30673 0.89464,0 1.37177,0.5879 0.47714,0.5879 0.47714,1.62738 z m -0.77535,-0.23005 q 0,-0.66458 -0.26413,-1.01391 -0.26413,-0.34934 -0.79239,-0.34934 -0.96279,0 -1.04799,1.41437 h 2.10451 z"
           style="font-weight:normal;font-family:'Fira Sans'"
           id="path642" />
      </g>
      <g
         aria-label="Leucine"
         id="text106">
        <path
           d="m 132.72608,180.70544 v 5.1633 h 2.41124 l -0.0937,0.70719 h -3.12695 v -5.87049 z"
           style="font-weight:normal;font-family:'Fira Sans'"
           id="path645" />
        <path
           d="m 139.29523,184.19876 q 0,0.19597 -0.017,0.40046 h -2.86282 q 0.0511,0.74126 0.37489,1.0906 0.32377,0.34933 0.83499,0.34933 0.32377,0 0.59642,-0.0937 0.27265,-0.0937 0.57086,-0.29821 l 0.34081,0.46861 q -0.7157,0.56234 -1.56773,0.56234 -0.93724,0 -1.4655,-0.61346 -0.51973,-0.61346 -0.51973,-1.68702 0,-0.69866 0.22152,-1.23544 0.23005,-0.5453 0.64755,-0.85203 0.42601,-0.30673 0.99687,-0.30673 0.89463,0 1.37177,0.5879 0.47714,0.5879 0.47714,1.62737 z m -0.77535,-0.23004 q 0,-0.66459 -0.26413,-1.01392 -0.26413,-0.34933 -0.79239,-0.34933 -0.96279,0 -1.04799,1.41437 h 2.10451 z"
           style="font-weight:normal;font-family:'Fira Sans'"
           id="path647" />
        <path
           d="m 143.88767,186.57593 h -0.6731 l -0.0597,-0.69867 q -0.25561,0.4175 -0.5879,0.61346 -0.33229,0.18745 -0.80943,0.18745 -0.5879,0 -0.92019,-0.35785 -0.33229,-0.35785 -0.33229,-1.01392 v -3.22067 h 0.78387 v 3.13547 q 0,0.4601 0.16188,0.65606 0.16189,0.18745 0.52826,0.18745 0.65607,0 1.12468,-0.77535 v -3.20363 h 0.78387 z"
           style="font-weight:normal;font-family:'Fira Sans'"
           id="path649" />
        <path
           d="m 147.14243,181.98349 q 0.40045,0 0.73275,0.11928 0.33229,0.11076 0.63902,0.36637 l -0.37489,0.49418 q -0.23857,-0.17041 -0.46862,-0.24709 -0.22153,-0.0852 -0.49418,-0.0852 -0.5453,0 -0.85203,0.43453 -0.29821,0.43454 -0.29821,1.28657 0,0.85203 0.29821,1.261 0.29821,0.40046 0.85203,0.40046 0.26413,0 0.48566,-0.0767 0.22153,-0.0852 0.49418,-0.26413 l 0.35785,0.51121 q -0.61346,0.49418 -1.37177,0.49418 -0.91167,0 -1.43993,-0.61346 -0.51974,-0.61346 -0.51974,-1.69554 0,-0.71571 0.23857,-1.25248 0.23857,-0.53678 0.6731,-0.83499 0.44306,-0.29821 1.048,-0.29821 z"
           style="font-weight:normal;font-family:'Fira Sans'"
           id="path651" />
        <path
           d="m 150.36311,182.08573 v 4.4902 h -0.78387 v -4.4902 z m -0.40045,-2.15564 q 0.24708,0 0.40045,0.15337 0.15337,0.15336 0.15337,0.38341 0,0.23005 -0.15337,0.38342 -0.15337,0.14484 -0.40045,0.14484 -0.23857,0 -0.39194,-0.14484 -0.15336,-0.15337 -0.15336,-0.38342 0,-0.23005 0.15336,-0.38341 0.15337,-0.15337 0.39194,-0.15337 z"
           style="font-weight:normal;font-family:'Fira Sans'"
           id="path653" />
        <path
           d="m 154.095,181.98349 q 0.61346,0 0.95427,0.36637 0.34933,0.36637 0.34933,1.00539 v 3.22068 h -0.78386 v -3.10991 q 0,-0.47714 -0.17893,-0.67311 -0.17893,-0.19596 -0.52826,-0.19596 -0.35785,0 -0.6305,0.20448 -0.27265,0.20449 -0.51122,0.58791 v 3.18659 h -0.78387 v -4.4902 h 0.67311 l 0.0682,0.66458 q 0.23857,-0.35785 0.5879,-0.56234 0.35785,-0.20448 0.78387,-0.20448 z"
           style="font-weight:normal;font-family:'Fira Sans'"
           id="path655" />
        <path
           d="m 160.36594,184.19876 q 0,0.19597 -0.017,0.40046 h -2.86282 q 0.0511,0.74126 0.37489,1.0906 0.32377,0.34933 0.83499,0.34933 0.32377,0 0.59642,-0.0937 0.27265,-0.0937 0.57086,-0.29821 l 0.34082,0.46861 q -0.71571,0.56234 -1.56774,0.56234 -0.93723,0 -1.46549,-0.61346 -0.51974,-0.61346 -0.51974,-1.68702 0,-0.69866 0.22153,-1.23544 0.23005,-0.5453 0.64754,-0.85203 0.42602,-0.30673 0.99688,-0.30673 0.89463,0 1.37176,0.5879 0.47714,0.5879 0.47714,1.62737 z m -0.77535,-0.23004 q 0,-0.66459 -0.26412,-1.01392 -0.26413,-0.34933 -0.79239,-0.34933 -0.9628,0 -1.048,1.41437 h 2.10451 z"
           style="font-weight:normal;font-family:'Fira Sans'"
           id="path657" />
      </g>
      <g
         aria-label="Glutamic Acid"
         id="text110">
        <path
           d="m 174.75911,165.81462 q 0.55382,0 0.95427,0.16189 0.40897,0.15336 0.80943,0.48566 l -0.47714,0.49417 q -0.31525,-0.25561 -0.60494,-0.36637 -0.28969,-0.11076 -0.68162,-0.11076 -0.45158,0 -0.83499,0.24709 -0.3749,0.23856 -0.61346,0.77534 -0.23857,0.52826 -0.23857,1.34621 0,1.23544 0.40045,1.8063 0.40898,0.57086 1.20136,0.57086 0.64755,0 1.11616,-0.26413 v -1.77222 h -1.03947 l -0.0937,-0.65606 h 1.93411 v 2.83726 q -0.91167,0.51974 -1.91707,0.51974 -1.15876,0 -1.81482,-0.77535 -0.64754,-0.77535 -0.64754,-2.2664 0,-0.95427 0.34081,-1.6359 0.34933,-0.69014 0.92871,-1.03947 0.5879,-0.35786 1.27805,-0.35786 z"
           style="font-weight:normal;font-family:'Fira Sans'"
           id="path660" />
        <path
           d="m 178.82329,171.8896 q -0.43453,0 -0.69014,-0.25561 -0.24709,-0.26413 -0.24709,-0.73275 v -5.41039 l 0.78387,-0.0937 v 5.48707 q 0,0.18745 0.0596,0.27265 0.0682,0.0852 0.22153,0.0852 0.16188,0 0.28969,-0.0511 l 0.20449,0.5453 q -0.28117,0.15337 -0.62199,0.15337 z"
           style="font-weight:normal;font-family:'Fira Sans'"
           id="path662" />
        <path
           d="m 183.76506,171.78735 h -0.6731 l -0.0596,-0.69866 q -0.25561,0.41749 -0.58791,0.61346 -0.33229,0.18745 -0.80942,0.18745 -0.5879,0 -0.9202,-0.35786 -0.33229,-0.35785 -0.33229,-1.01391 v -3.22067 h 0.78387 v 3.13547 q 0,0.46009 0.16189,0.65606 0.16188,0.18745 0.52825,0.18745 0.65607,0 1.12468,-0.77535 v -3.20363 h 0.78387 z"
           style="font-weight:normal;font-family:'Fira Sans'"
           id="path664" />
        <path
           d="m 187.65032,171.58287 q -0.44305,0.30673 -1.00539,0.30673 -0.57086,0 -0.89463,-0.32377 -0.31525,-0.3323 -0.31525,-0.95428 v -2.70945 h -0.78387 v -0.60494 h 0.78387 v -1.01392 l 0.78386,-0.0937 v 1.10764 h 1.06504 l -0.0852,0.60494 h -0.97984 v 2.67537 q 0,0.34933 0.11929,0.51122 0.1278,0.15336 0.41749,0.15336 0.26413,0 0.59642,-0.17892 z"
           style="font-weight:normal;font-family:'Fira Sans'"
           id="path666" />
        <path
           d="m 191.42482,170.73936 q 0,0.27265 0.0937,0.40897 0.0937,0.12781 0.28117,0.19597 l -0.17893,0.5453 q -0.34933,-0.0426 -0.56233,-0.19597 -0.21301,-0.15337 -0.31526,-0.47714 -0.45157,0.67311 -1.33768,0.67311 -0.66459,0 -1.048,-0.3749 -0.38341,-0.37489 -0.38341,-0.97983 0,-0.71571 0.51121,-1.09912 0.51974,-0.38341 1.4655,-0.38341 h 0.69014 v -0.33229 q 0,-0.47714 -0.23005,-0.68163 -0.23005,-0.20449 -0.70718,-0.20449 -0.49418,0 -1.20989,0.23857 l -0.19596,-0.57086 q 0.83499,-0.30673 1.55069,-0.30673 0.79239,0 1.18432,0.39194 0.39194,0.38341 0.39194,1.09911 z m -1.84039,0.56234 q 0.67311,0 1.05652,-0.69867 v -1.03095 h -0.5879 q -1.24396,0 -1.24396,0.92019 0,0.40045 0.19596,0.60494 0.19597,0.20449 0.57938,0.20449 z"
           style="font-weight:normal;font-family:'Fira Sans'"
           id="path668" />
        <path
           d="m 197.5424,167.19491 q 0.55382,0 0.88611,0.3749 0.33229,0.36637 0.33229,0.99687 v 3.22067 h -0.78387 v -3.10991 q 0,-0.86907 -0.6305,-0.86907 -0.33229,0 -0.56234,0.19597 -0.23005,0.18745 -0.49418,0.59642 v 3.18659 h -0.78386 v -3.10991 q 0,-0.86907 -0.63051,-0.86907 -0.34081,0 -0.57086,0.19597 -0.23004,0.19597 -0.48565,0.59642 v 3.18659 h -0.78387 v -4.49019 h 0.6731 l 0.0682,0.65606 q 0.50269,-0.75831 1.29508,-0.75831 0.4175,0 0.70719,0.21301 0.29821,0.21301 0.42601,0.59642 0.26413,-0.39193 0.57938,-0.59642 0.32377,-0.21301 0.75831,-0.21301 z"
           style="font-weight:normal;font-family:'Fira Sans'"
           id="path670" />
        <path
           d="m 201.12093,167.29716 v 4.49019 h -0.78387 v -4.49019 z m -0.40046,-2.15564 q 0.24709,0 0.40046,0.15336 0.15336,0.15337 0.15336,0.38342 0,0.23005 -0.15336,0.38341 -0.15337,0.14485 -0.40046,0.14485 -0.23856,0 -0.39193,-0.14485 -0.15337,-0.15336 -0.15337,-0.38341 0,-0.23005 0.15337,-0.38342 0.15337,-0.15336 0.39193,-0.15336 z"
           style="font-weight:normal;font-family:'Fira Sans'"
           id="path672" />
        <path
           d="m 204.37568,167.19491 q 0.40045,0 0.73275,0.11929 0.33229,0.11076 0.63902,0.36637 l -0.3749,0.49418 q -0.23856,-0.17041 -0.46861,-0.24709 -0.22153,-0.0852 -0.49418,-0.0852 -0.5453,0 -0.85203,0.43454 -0.29821,0.43454 -0.29821,1.28657 0,0.85203 0.29821,1.261 0.29821,0.40045 0.85203,0.40045 0.26413,0 0.48566,-0.0767 0.22153,-0.0852 0.49417,-0.26413 l 0.35786,0.51122 q -0.61346,0.49418 -1.37177,0.49418 -0.91167,0 -1.43993,-0.61346 -0.51974,-0.61347 -0.51974,-1.69554 0,-0.71571 0.23857,-1.25249 0.23857,-0.53678 0.6731,-0.83499 0.44306,-0.29821 1.048,-0.29821 z"
           style="font-weight:normal;font-family:'Fira Sans'"
           id="path674" />
        <path
           d="m 212.23992,171.78735 -0.44306,-1.47401 h -2.2238 l -0.44305,1.47401 h -0.81795 l 1.88298,-5.87048 h 1.02244 l 1.87447,5.87048 z m -2.47089,-2.13007 h 1.83186 l -0.91167,-3.06731 z"
           style="font-weight:normal;font-family:'Fira Sans'"
           id="path676" />
        <path
           d="m 215.58839,167.19491 q 0.40046,0 0.73275,0.11929 0.33229,0.11076 0.63902,0.36637 l -0.37489,0.49418 q -0.23857,-0.17041 -0.46862,-0.24709 -0.22153,-0.0852 -0.49418,-0.0852 -0.5453,0 -0.85203,0.43454 -0.29821,0.43454 -0.29821,1.28657 0,0.85203 0.29821,1.261 0.29821,0.40045 0.85203,0.40045 0.26413,0 0.48566,-0.0767 0.22153,-0.0852 0.49418,-0.26413 l 0.35785,0.51122 q -0.61346,0.49418 -1.37177,0.49418 -0.91167,0 -1.43993,-0.61346 -0.51974,-0.61347 -0.51974,-1.69554 0,-0.71571 0.23857,-1.25249 0.23857,-0.53678 0.67311,-0.83499 0.44305,-0.29821 1.04799,-0.29821 z"
           style="font-weight:normal;font-family:'Fira Sans'"
           id="path678" />
        <path
           d="m 218.80907,167.29716 v 4.49019 h -0.78387 v -4.49019 z m -0.40045,-2.15564 q 0.24709,0 0.40045,0.15336 0.15337,0.15337 0.15337,0.38342 0,0.23005 -0.15337,0.38341 -0.15336,0.14485 -0.40045,0.14485 -0.23857,0 -0.39194,-0.14485 -0.15336,-0.15336 -0.15336,-0.38341 0,-0.23005 0.15336,-0.38342 0.15337,-0.15336 0.39194,-0.15336 z"
           style="font-weight:normal;font-family:'Fira Sans'"
           id="path680" />
        <path
           d="m 223.90421,165.49085 v 6.2965 h -0.69015 l -0.0767,-0.62198 q -0.22153,0.34081 -0.55382,0.53678 -0.33229,0.18745 -0.74127,0.18745 -0.8009,0 -1.25248,-0.63051 -0.44306,-0.6305 -0.44306,-1.69553 0,-0.69015 0.21301,-1.22693 0.21301,-0.53678 0.61346,-0.83499 0.40046,-0.30673 0.93724,-0.30673 0.69014,0 1.20988,0.55382 v -2.3516 z m -1.89151,5.77677 q 0.35785,0 0.61346,-0.16189 0.25561,-0.17041 0.49418,-0.5027 v -2.19824 q -0.22153,-0.28969 -0.47714,-0.43453 -0.24709,-0.15337 -0.56234,-0.15337 -0.51974,0 -0.80943,0.43454 -0.28117,0.43453 -0.28117,1.29508 0,0.86908 0.26413,1.29509 0.26413,0.42602 0.75831,0.42602 z"
           style="font-weight:normal;font-family:'Fira Sans'"
           id="path682" />
      </g>
    </g>
    <g
       fill="#dcd08f"
       font-family="'Fira Code'"
       font-size="8.5203px"
       font-weight="500"
       stroke-width="2.6462"
       id="g190">
      <g
         aria-label="wb3"
         id="text118">
        <path
           d="m 77.713225,198.55013 h -1.223428 l -0.519957,-3.27704 -0.559281,3.27704 h -1.197211 l -0.78212,-4.61407 h 0.943787 l 0.480632,4.00672 0.6423,-3.42123 h 0.978742 l 0.598606,3.42123 0.480632,-4.00672 h 0.908832 z"
           style="font-size:8.5203px"
           id="path685" />
        <path
           d="m 80.32612,194.4866 q 0.235947,-0.3146 0.559282,-0.49374 0.323334,-0.17915 0.70784,-0.17915 0.607344,0 0.983111,0.30149 0.380137,0.29712 0.554912,0.84329 0.179145,0.5418 0.179145,1.27586 0,0.70347 -0.20973,1.25401 -0.209731,0.55055 -0.620453,0.86514 -0.406353,0.3146 -1.004958,0.3146 -0.773382,0 -1.214689,-0.57239 l -0.05243,0.45442 h -0.860769 v -6.46669 l 0.978742,-0.10924 z m 0.904463,3.43433 q 0.49811,0 0.769012,-0.40635 0.275271,-0.40635 0.275271,-1.27586 0,-0.88698 -0.249055,-1.27586 -0.244686,-0.39324 -0.699102,-0.39324 -0.327703,0 -0.581128,0.19662 -0.249055,0.19662 -0.419461,0.46315 v 2.15848 q 0.161668,0.24905 0.388876,0.39324 0.231577,0.13982 0.515587,0.13982 z"
           style="font-size:8.5203px"
           id="path687" />
        <path
           d="m 85.346548,196.25532 q 0.389094,0 0.670264,0.13633 0.281171,0.13632 0.431696,0.36069 0.150525,0.22437 0.150525,0.49418 0,0.36353 -0.224368,0.60494 -0.221528,0.24141 -0.55382,0.31809 0.244249,0.0256 0.448737,0.13632 0.207327,0.11077 0.329451,0.31526 0.124965,0.20448 0.124965,0.51405 0,0.33514 -0.176086,0.60779 -0.176087,0.26981 -0.494178,0.42885 -0.318092,0.15905 -0.749787,0.15905 -0.369214,0 -0.704346,-0.13633 -0.332292,-0.13632 -0.56518,-0.41181 l 0.389094,-0.34081 q 0.167566,0.19596 0.389094,0.28969 0.224368,0.0937 0.462937,0.0937 0.363533,0 0.576541,-0.18745 0.213007,-0.19028 0.213007,-0.52542 0,-0.38057 -0.210167,-0.5311 -0.210168,-0.15336 -0.5453,-0.15336 h -0.337972 l 0.07384,-0.46862 h 0.238569 q 0.27549,0 0.479977,-0.15052 0.207328,-0.15337 0.207328,-0.46862 0,-0.28401 -0.195967,-0.43738 -0.193127,-0.1562 -0.479978,-0.1562 -0.247088,0 -0.437375,0.0909 -0.190287,0.0909 -0.374894,0.26129 l -0.337972,-0.36069 q 0.258449,-0.24425 0.5595,-0.36353 0.301051,-0.11929 0.641863,-0.11929 z"
           style="font-size:5.5382px;baseline-shift:sub"
           id="path689" />
      </g>
      <g
         aria-label="Δ15"
         id="text122">
        <path
           d="m 59.397383,224.68773 1.922529,6.02975 H 56.22084 l 1.91816,-6.02975 z m -0.646669,0.7996 -1.267122,4.39997 h 2.529874 z"
           style="font-size:8.5203px"
           id="path692" />
        <path
           d="m 66.021373,229.94847 v 0.76901 h -3.648436 v -0.76901 h 1.472483 v -4.25578 l -1.328293,0.81708 -0.419461,-0.686 1.852619,-1.13604 h 0.865138 v 5.26074 z"
           style="font-size:8.5203px"
           id="path694" />
        <path
           d="m 70.980629,224.68773 -0.126713,0.73406 h -2.315773 v 1.67784 q 0.257793,-0.13545 0.498109,-0.18351 0.244686,-0.0524 0.489372,-0.0524 0.480632,0 0.856399,0.2272 0.375767,0.22721 0.589867,0.65541 0.218469,0.4282 0.218469,1.03555 0,0.60734 -0.270902,1.0705 -0.266532,0.46315 -0.755903,0.72531 -0.485002,0.2578 -1.13604,0.2578 -0.589867,0 -1.048653,-0.20973 -0.454416,-0.2141 -0.799597,-0.58113 l 0.585498,-0.55054 q 0.502479,0.56365 1.223427,0.56365 0.550543,0 0.865138,-0.33208 0.318965,-0.33644 0.318965,-0.94815 0,-0.66415 -0.27964,-0.92631 -0.279641,-0.26654 -0.703471,-0.26654 -0.227208,0 -0.4282,0.0524 -0.196622,0.0481 -0.436938,0.14856 h -0.720949 v -3.0979 z"
           style="font-size:8.5203px"
           id="path696" />
      </g>
      <g
         aria-label="da2"
         id="text128">
        <path
           d="m 99.737089,235.58457 0.978741,0.10923 v 6.46669 h -0.860767 l -0.06991,-0.56802 q -0.235947,0.32771 -0.563651,0.50685 -0.327704,0.17915 -0.734057,0.17915 -0.594236,0 -0.978742,-0.30149 -0.380136,-0.30586 -0.56802,-0.85203 -0.187883,-0.54618 -0.187883,-1.27149 0,-0.70347 0.218469,-1.24965 0.218469,-0.55054 0.624822,-0.86514 0.406353,-0.31459 0.978742,-0.31459 0.71221,0 1.162256,0.50248 z m -0.904462,2.59104 q -0.493741,0 -0.769012,0.41073 -0.275271,0.40635 -0.275271,1.26712 0,0.88261 0.249055,1.28023 0.253424,0.39324 0.70784,0.39324 0.332073,0 0.576759,-0.19225 0.244685,-0.19225 0.415091,-0.46316 v -2.18469 q -0.170406,-0.24468 -0.397614,-0.37577 -0.227208,-0.13545 -0.506848,-0.13545 z"
           style="font-size:8.5203px"
           id="path699" />
        <path
           d="m 105.79743,241.02882 q 0,0.27527 0.083,0.39762 0.083,0.12234 0.26653,0.18351 l -0.21847,0.66415 q -0.34081,-0.0393 -0.58987,-0.18789 -0.24468,-0.14856 -0.36702,-0.45004 -0.25343,0.32333 -0.6423,0.485 -0.38888,0.1573 -0.83019,0.1573 -0.70347,0 -1.10982,-0.39325 -0.40635,-0.39761 -0.40635,-1.03991 0,-0.72969 0.56802,-1.12293 0.56802,-0.39325 1.62541,-0.39325 h 0.65977 v -0.30149 q 0,-0.45004 -0.2709,-0.6423 -0.2709,-0.19662 -0.7559,-0.19662 -0.22721,0 -0.55054,0.0612 -0.32334,0.0568 -0.67726,0.17915 l -0.24031,-0.69037 q 0.43257,-0.16166 0.84766,-0.23594 0.41509,-0.0787 0.76901,-0.0787 0.92631,0 1.38072,0.41072 0.45879,0.41072 0.45879,1.13604 z m -2.00118,0.5287 q 0.29712,0 0.58113,-0.1573 0.28401,-0.1573 0.45878,-0.44131 v -1.01807 h -0.5418 q -0.69036,0 -0.98748,0.23158 -0.29712,0.22721 -0.29712,0.62919 0,0.75591 0.78649,0.75591 z"
           style="font-size:8.5203px"
           id="path701" />
        <path
           d="m 108.28187,239.86569 q 0.39761,0 0.67594,0.15052 0.27833,0.14769 0.42318,0.40046 0.14768,0.24993 0.14768,0.55666 0,0.25845 -0.0909,0.50554 -0.088,0.24424 -0.28685,0.51689 -0.19597,0.26981 -0.51974,0.60211 -0.32377,0.32945 -0.79239,0.75546 h 1.78074 l -0.0738,0.51122 h -2.43681 v -0.48282 q 0.52826,-0.50837 0.86908,-0.86339 0.34365,-0.35501 0.53677,-0.61346 0.19597,-0.25845 0.27549,-0.46578 0.0795,-0.21016 0.0795,-0.42601 0,-0.29537 -0.16757,-0.46578 -0.16756,-0.1704 -0.46578,-0.1704 -0.26412,0 -0.44305,0.0966 -0.17609,0.0966 -0.34933,0.31241 l -0.41466,-0.31525 q 0.23005,-0.29253 0.52826,-0.44874 0.29821,-0.1562 0.72423,-0.1562 z"
           style="font-size:5.5382px;baseline-shift:sub"
           id="path703" />
      </g>
      <g
         aria-label="db2"
         id="text134">
        <path
           d="m 71.158247,235.58457 0.978742,0.10923 v 6.46669 h -0.860768 l -0.06991,-0.56802 q -0.235946,0.32771 -0.56365,0.50685 -0.327704,0.17915 -0.734057,0.17915 -0.594236,0 -0.978742,-0.30149 -0.380136,-0.30586 -0.56802,-0.85203 -0.187884,-0.54618 -0.187884,-1.27149 0,-0.70347 0.21847,-1.24965 0.218469,-0.55054 0.624822,-0.86514 0.406352,-0.31459 0.978742,-0.31459 0.71221,0 1.162256,0.50248 z m -0.904462,2.59104 q -0.493741,0 -0.769012,0.41073 -0.275271,0.40635 -0.275271,1.26712 0,0.88261 0.249055,1.28023 0.253424,0.39324 0.70784,0.39324 0.332073,0 0.576759,-0.19225 0.244685,-0.19225 0.415091,-0.46316 v -2.18469 q -0.170406,-0.24468 -0.397614,-0.37577 -0.227208,-0.13545 -0.506848,-0.13545 z"
           style="font-size:8.5203px"
           id="path706" />
        <path
           d="m 74.671236,238.09696 q 0.235947,-0.31459 0.559281,-0.49374 0.323335,-0.17914 0.707841,-0.17914 0.607344,0 0.983111,0.30149 0.380137,0.29711 0.554912,0.84329 0.179145,0.5418 0.179145,1.27586 0,0.70347 -0.209731,1.25401 -0.20973,0.55054 -0.620452,0.86514 -0.406353,0.3146 -1.004959,0.3146 -0.773381,0 -1.214689,-0.57239 l -0.05243,0.45441 h -0.860769 v -6.46669 l 0.978742,-0.10923 z m 0.904463,3.43434 q 0.498109,0 0.769011,-0.40635 0.275272,-0.40635 0.275272,-1.27586 0,-0.88699 -0.249055,-1.27586 -0.244686,-0.39325 -0.699102,-0.39325 -0.327704,0 -0.581128,0.19662 -0.249055,0.19663 -0.419461,0.46316 v 2.15848 q 0.161667,0.24905 0.388875,0.39324 0.231578,0.13982 0.515588,0.13982 z"
           style="font-size:8.5203px"
           id="path708" />
        <path
           d="m 79.703024,239.86569 q 0.397615,0 0.675945,0.15052 0.27833,0.14769 0.423175,0.40046 0.147685,0.24993 0.147685,0.55666 0,0.25845 -0.09088,0.50554 -0.08804,0.24424 -0.28685,0.51689 -0.195967,0.26981 -0.519739,0.60211 -0.323772,0.32945 -0.792389,0.75546 h 1.780745 l -0.07384,0.51122 h -2.436808 v -0.48282 q 0.528259,-0.50837 0.869071,-0.86339 0.343653,-0.35501 0.53678,-0.61346 0.195967,-0.25845 0.27549,-0.46578 0.07952,-0.21016 0.07952,-0.42601 0,-0.29537 -0.167566,-0.46578 -0.167567,-0.1704 -0.465777,-0.1704 -0.26413,0 -0.443056,0.0966 -0.176087,0.0966 -0.349333,0.31241 l -0.414655,-0.31525 q 0.230048,-0.29253 0.528259,-0.44874 0.298211,-0.1562 0.724226,-0.1562 z"
           style="font-size:5.5382px;baseline-shift:sub"
           id="path710" />
      </g>
      <g
         aria-label="w2"
         id="text140">
        <path
           d="m 127.48397,259.66049 h -1.22343 l -0.51996,-3.27704 -0.55928,3.27704 h -1.19721 l -0.78212,-4.61407 h 0.94379 l 0.48063,4.00673 0.6423,-3.42123 h 0.97874 l 0.59861,3.42123 0.48063,-4.00673 h 0.90883 z"
           style="font-size:8.5203px"
           id="path713" />
        <path
           d="m 129.88539,257.36569 q 0.39761,0 0.67594,0.15052 0.27833,0.14769 0.42318,0.40046 0.14768,0.24993 0.14768,0.55666 0,0.25845 -0.0909,0.50554 -0.088,0.24424 -0.28685,0.51689 -0.19597,0.26981 -0.51974,0.60211 -0.32377,0.32945 -0.79239,0.75546 h 1.78075 l -0.0739,0.51122 h -2.4368 v -0.48282 q 0.52825,-0.50837 0.86907,-0.86339 0.34365,-0.35501 0.53678,-0.61346 0.19596,-0.25845 0.27549,-0.46578 0.0795,-0.21016 0.0795,-0.42601 0,-0.29537 -0.16757,-0.46578 -0.16756,-0.1704 -0.46577,-0.1704 -0.26413,0 -0.44306,0.0966 -0.17609,0.0966 -0.34933,0.31241 l -0.41466,-0.31525 q 0.23005,-0.29253 0.52826,-0.44874 0.29821,-0.1562 0.72423,-0.1562 z"
           style="font-size:5.5382px;baseline-shift:sub"
           id="path715" />
      </g>
      <g
         aria-label="Δ43"
         id="text144">
        <path
           d="m 140.13005,284.84122 1.92253,6.02975 h -5.09907 l 1.91816,-6.02975 z m -0.64667,0.7996 -1.26712,4.39997 h 2.52987 z"
           style="font-size:8.5203px"
           id="path718" />
        <path
           d="m 146.10737,287.10893 v 1.6123 h 0.71658 v 0.76028 h -0.71658 v 1.38946 h -0.93942 l -0.004,-1.38946 h -2.50365 v -0.68163 l 1.73464,-4.081 0.82582,0.3277 -1.53803,3.67465 h 1.48559 l 0.11798,-1.6123 z"
           style="font-size:8.5203px"
           id="path720" />
        <path
           d="m 149.72522,284.71888 q 0.59861,0 1.03118,0.20973 0.43257,0.20973 0.66415,0.55491 0.23157,0.34518 0.23157,0.76027 0,0.55928 -0.34518,0.93068 -0.34081,0.3714 -0.85203,0.48937 0.37577,0.0393 0.69036,0.20973 0.31897,0.17041 0.50685,0.48501 0.19226,0.31459 0.19226,0.79085 0,0.51559 -0.27091,0.93505 -0.2709,0.41509 -0.76027,0.65978 -0.48937,0.24469 -1.15352,0.24469 -0.56802,0 -1.0836,-0.20974 -0.51122,-0.20973 -0.86951,-0.63356 l 0.5986,-0.52432 q 0.2578,0.30149 0.59861,0.44567 0.34518,0.14419 0.71221,0.14419 0.55928,0 0.88699,-0.28837 0.3277,-0.29275 0.3277,-0.80834 0,-0.5855 -0.32334,-0.81708 -0.32333,-0.23594 -0.83892,-0.23594 h -0.51995 l 0.1136,-0.72095 h 0.36703 q 0.42383,0 0.73842,-0.23158 0.31897,-0.23595 0.31897,-0.72095 0,-0.43694 -0.30149,-0.67288 -0.29712,-0.24032 -0.73842,-0.24032 -0.38014,0 -0.67289,0.13982 -0.29275,0.13982 -0.57676,0.40199 l -0.51996,-0.55492 q 0.39762,-0.37576 0.86077,-0.55928 0.46316,-0.18351 0.98748,-0.18351 z"
           style="font-size:8.5203px"
           id="path722" />
      </g>
      <g
         aria-label="d3"
         id="text150">
        <path
           d="m 135.24412,295.08457 0.97875,0.10923 v 6.46669 h -0.86077 l -0.0699,-0.56802 q -0.23595,0.32771 -0.56365,0.50685 -0.32771,0.17915 -0.73406,0.17915 -0.59424,0 -0.97874,-0.30149 -0.38014,-0.30586 -0.56802,-0.85203 -0.18789,-0.54618 -0.18789,-1.27149 0,-0.70347 0.21847,-1.24965 0.21847,-0.55054 0.62483,-0.86514 0.40635,-0.31459 0.97874,-0.31459 0.71221,0 1.16225,0.50248 z m -0.90446,2.59104 q -0.49374,0 -0.76901,0.41073 -0.27527,0.40635 -0.27527,1.26712 0,0.88261 0.24905,1.28023 0.25343,0.39324 0.70784,0.39324 0.33208,0 0.57676,-0.19225 0.24469,-0.19225 0.41509,-0.46316 v -2.18469 q -0.1704,-0.24468 -0.39761,-0.37577 -0.22721,-0.13545 -0.50685,-0.13545 z"
           style="font-size:8.5203px"
           id="path725" />
        <path
           d="m 138.53428,299.36569 q 0.38909,0 0.67026,0.13632 0.28117,0.13633 0.4317,0.3607 0.15052,0.22436 0.15052,0.49417 0,0.36354 -0.22437,0.60495 -0.22153,0.2414 -0.55382,0.31809 0.24425,0.0256 0.44874,0.13632 0.20733,0.11077 0.32945,0.31525 0.12496,0.20449 0.12496,0.51406 0,0.33513 -0.17608,0.60778 -0.17609,0.26981 -0.49418,0.42886 -0.31809,0.15904 -0.74979,0.15904 -0.36921,0 -0.70434,-0.13632 -0.33229,-0.13633 -0.56518,-0.41182 l 0.38909,-0.34081 q 0.16757,0.19597 0.3891,0.28969 0.22436,0.0937 0.46293,0.0937 0.36354,0 0.57654,-0.18745 0.21301,-0.19029 0.21301,-0.52542 0,-0.38057 -0.21017,-0.5311 -0.21016,-0.15336 -0.5453,-0.15336 h -0.33797 l 0.0738,-0.46862 h 0.23857 q 0.27549,0 0.47998,-0.15053 0.20733,-0.15336 0.20733,-0.46861 0,-0.28401 -0.19597,-0.43738 -0.19313,-0.1562 -0.47998,-0.1562 -0.24709,0 -0.43737,0.0909 -0.19029,0.0909 -0.3749,0.26129 l -0.33797,-0.3607 q 0.25845,-0.24424 0.5595,-0.36353 0.30105,-0.11928 0.64187,-0.11928 z"
           style="font-size:5.5382px;baseline-shift:sub"
           id="path727" />
      </g>
      <g
         aria-label="z1"
         id="text156">
        <path
           d="m 181.43014,225.16961 h 2.4687 l -0.10486,0.78649 h -3.5392 v -0.71658 l 2.45559,-3.111 h -2.25897 v -0.78649 h 3.41686 v 0.71658 z"
           style="font-size:8.5203px"
           id="path730" />
        <path
           d="m 187.71332,227.1603 v 0.49986 h -2.37148 v -0.49986 h 0.95711 v -2.76626 l -0.86339,0.5311 -0.27265,-0.44589 1.2042,-0.73843 h 0.56234 v 3.41948 z"
           style="font-size:5.5382px;baseline-shift:sub"
           id="path732" />
      </g>
      <g
         aria-label="y1"
         id="text162">
        <path
           d="m 174.00323,221.34203 -1.59045,4.63155 q -0.17915,0.52432 -0.45879,0.92631 -0.27964,0.40198 -0.71658,0.6423 -0.43694,0.24468 -1.0836,0.30148 l -0.12672,-0.73405 q 0.46753,-0.0743 0.7428,-0.21847 0.27964,-0.13982 0.44131,-0.3714 0.16603,-0.22721 0.29275,-0.56365 h -0.33208 l -1.5555,-4.61407 h 1.03991 l 1.16226,3.93245 1.17973,-3.93245 z"
           style="font-size:8.5203px"
           id="path735" />
        <path
           d="m 177.44195,227.1603 v 0.49986 h -2.37149 v -0.49986 h 0.95711 v -2.76626 l -0.86339,0.5311 -0.27265,-0.44589 1.20421,-0.73843 h 0.56234 v 3.41948 z"
           style="font-size:5.5382px;baseline-shift:sub"
           id="path737" />
      </g>
      <g
         aria-label="b4"
         id="text168">
        <path
           d="m 163.5351,264.2169 q 0.23595,-0.3146 0.55928,-0.49374 0.32334,-0.17915 0.70784,-0.17915 0.60735,0 0.98312,0.30149 0.38013,0.29712 0.55491,0.84329 0.17914,0.54181 0.17914,1.27586 0,0.70347 -0.20973,1.25402 -0.20973,0.55054 -0.62045,0.86513 -0.40635,0.3146 -1.00496,0.3146 -0.77338,0 -1.21469,-0.57239 l -0.0524,0.45442 h -0.86077 v -6.46669 l 0.97874,-0.10924 z m 0.90447,3.43433 q 0.49811,0 0.76901,-0.40635 0.27527,-0.40635 0.27527,-1.27586 0,-0.88698 -0.24906,-1.27586 -0.24468,-0.39324 -0.6991,-0.39324 -0.3277,0 -0.58113,0.19662 -0.24905,0.19662 -0.41946,0.46315 v 2.15848 q 0.16167,0.24905 0.38888,0.39324 0.23158,0.13982 0.51559,0.13982 z"
           style="font-size:8.5203px"
           id="path740" />
        <path
           d="m 169.61205,267.53916 v 1.048 h 0.46578 v 0.49417 h -0.46578 v 0.90316 h -0.61062 l -0.003,-0.90316 h -1.62738 v -0.44305 l 1.12752,-2.65266 0.53678,0.21301 -0.99972,2.38853 h 0.96564 l 0.0767,-1.048 z"
           style="font-size:5.5382px;baseline-shift:sub"
           id="path742" />
      </g>
      <g
         aria-label="x1"
         id="text176">
        <path
           d="m 146.34774,225.9561 h -1.08361 l 1.656,-2.43375 -1.47248,-2.18032 h 1.1273 l 0.94379,1.62541 0.94378,-1.62541 h 1.07487 l -1.4419,2.141 1.66037,2.47307 h -1.14915 l -1.13167,-1.8832 z"
           id="path745" />
        <path
           d="m 153.14214,227.1603 v 0.49986 h -2.37149 v -0.49986 h 0.95712 v -2.76626 l -0.86339,0.5311 -0.27265,-0.44589 1.2042,-0.73843 h 0.56234 v 3.41948 z"
           style="font-size:5.5382px;baseline-shift:sub"
           id="path747" />
      </g>
      <g
         aria-label="a4"
         id="text182">
        <path
           d="m 156.51512,267.14876 q 0,0.27527 0.083,0.39761 0.083,0.12234 0.26653,0.18351 l -0.21847,0.66415 q -0.34081,-0.0393 -0.58987,-0.18788 -0.24468,-0.14856 -0.36703,-0.45005 -0.25342,0.32333 -0.6423,0.485 -0.38887,0.1573 -0.83018,0.1573 -0.70347,0 -1.10982,-0.39325 -0.40636,-0.39761 -0.40636,-1.03991 0,-0.72969 0.56802,-1.12293 0.56802,-0.39325 1.62542,-0.39325 h 0.65977 v -0.30148 q 0,-0.45005 -0.2709,-0.6423 -0.2709,-0.19662 -0.7559,-0.19662 -0.22721,0 -0.55055,0.0612 -0.32333,0.0568 -0.67725,0.17914 l -0.24032,-0.69036 q 0.43257,-0.16167 0.84766,-0.23595 0.4151,-0.0786 0.76902,-0.0786 0.92631,0 1.38072,0.41073 0.45879,0.41072 0.45879,1.13604 z m -2.00118,0.52869 q 0.29712,0 0.58113,-0.1573 0.28401,-0.15729 0.45878,-0.4413 v -1.01807 h -0.5418 q -0.69036,0 -0.98748,0.23158 -0.29712,0.2272 -0.29712,0.62919 0,0.7559 0.78649,0.7559 z"
           style="font-size:8.5203px"
           id="path750" />
        <path
           d="m 160.04471,267.53916 v 1.048 h 0.46578 v 0.49417 h -0.46578 v 0.90316 h -0.61062 l -0.003,-0.90316 h -1.62738 v -0.44305 l 1.12752,-2.65266 0.53678,0.21301 -0.99972,2.38853 h 0.96564 l 0.0767,-1.048 z"
           style="font-size:5.5382px;baseline-shift:sub"
           id="path752" />
      </g>
      <g
         aria-label="c4"
         id="text188">
        <path
           d="m 190.78357,267.59443 q 0.32333,0 0.60297,-0.1136 0.27964,-0.11361 0.53307,-0.28838 l 0.45441,0.62919 q -0.30149,0.25779 -0.73405,0.41946 -0.4282,0.1573 -0.88699,0.1573 -0.70784,0 -1.21469,-0.29712 -0.50248,-0.30149 -0.76901,-0.83892 -0.26216,-0.5418 -0.26216,-1.26712 0,-0.70347 0.26653,-1.25402 0.2709,-0.55491 0.77775,-0.87387 0.50685,-0.32334 1.21906,-0.32334 0.92631,0 1.59919,0.55491 l -0.45004,0.61609 q -0.27091,-0.18789 -0.55492,-0.28401 -0.28401,-0.1005 -0.57675,-0.1005 -0.55055,0 -0.89573,0.40199 -0.34518,0.40198 -0.34518,1.26275 0,0.86514 0.34955,1.23216 0.34955,0.36703 0.88699,0.36703 z"
           style="font-size:8.5203px"
           id="path755" />
        <path
           d="m 195.61524,267.53916 v 1.048 h 0.46577 v 0.49417 h -0.46577 v 0.90316 h -0.61062 l -0.003,-0.90316 h -1.62738 v -0.44305 l 1.12752,-2.65266 0.53678,0.21301 -0.99972,2.38853 h 0.96564 l 0.0767,-1.048 z"
           style="font-size:5.5382px;baseline-shift:sub"
           id="path757" />
      </g>
    </g>
    <g
       fill="none"
       id="g242">
      <g
         stroke-width="1.318"
         id="g214">
        <path
           d="m86.724 242.66v-20l17.321-10v-20"
           stop-color="#000000"
           stroke="#7e7e7e"
           id="path192" />
        <path
           d="m86.724 222.66-17.321-10"
           stop-color="#000000"
           stroke="#7e7e7e"
           id="path194" />
        <path
           d="m138.69 252.66v20l-17.32 10v20"
           stop-color="#000000"
           stroke="#d4d4d4"
           id="path196" />
        <path
           d="m121.37 282.66-20 1e-5"
           stop-color="#000000"
           stroke="#d4d4d4"
           id="path198" />
        <path
           d="m190.65 242.66v-20l17.32-10v-20l13.856-8"
           stop-color="#000000"
           stroke="#7e7e7e"
           id="path200" />
        <path
           d="m155.14 243.16v-16.267"
           stop-color="#000000"
           stroke="#d4d4d4"
           id="path202" />
        <path
           d="m156.87 243.16v-16.267"
           stop-color="#000000"
           stroke="#d4d4d4"
           id="path204" />
        <path
           d="m103.18 267.93v-15.767"
           stop-color="#000000"
           stroke="#7e7e7e"
           id="path206" />
        <path
           d="m104.91 267.93v-15.767"
           stop-color="#000000"
           stroke="#7e7e7e"
           id="path208" />
        <path
           d="m51.217 243.16 1e-6 -16.267"
           stop-color="#000000"
           stroke="#d4d4d4"
           id="path210" />
        <path
           d="m52.949 243.16 1e-6 -16.267"
           stop-color="#000000"
           stroke="#d4d4d4"
           id="path212" />
      </g>
      <g
         stroke="#7e7e7e"
         stroke-width="1.318"
         id="g224">
        <path
           d="m207.1 267.93v-15.767"
           stop-color="#000000"
           id="path216" />
        <path
           d="m208.83 267.93v-15.767"
           stop-color="#000000"
           id="path218" />
        <path
           d="m207.97 193.66-13.856-8"
           stop-color="#000000"
           id="path220" />
        <path
           d="m208.83 192.16-13.856-8"
           stop-color="#000000"
           id="path222" />
      </g>
      <path
         id="circle226"
         style="stroke:#d4d4d4;stroke-width:1.318;stop-color:#000000"
         d="m 82.716999,292.66 a 13.313,13.313 0 0 1 -13.313,13.313 A 13.313,13.313 0 0 1 56.091,292.66 a 13.313,13.313 0 0 1 13.312999,-13.313 13.313,13.313 0 0 1 13.313,13.313 z" />
      <g
         stroke="#dcd08f"
         stroke-dasharray="2.63541, 1.3177"
         stroke-width="1.3177"
         id="g240">
        <path
           d="m99.714 235.16v-10l-8.6603-15v-10"
           id="path228" />
        <path
           d="m73.734 235.16v-10l8.6603-15v-10"
           id="path230" />
        <path
           d="m134.36 295.16v-10l-8.6602-15v-10"
           id="path232" />
        <path
           d="m156.01 262.66v-10l-8.6602-15v-10"
           id="path234" />
        <path
           d="m190.65 262.66v-10l-8.6602-15v-10"
           id="path236" />
        <path
           d="m164.67 262.66v-10l8.6602-15v-10"
           id="path238" />
      </g>
    </g>
  </g>
</svg>
